<?xml version="1.0" standalone="no"?><!DOCTYPE svg PUBLIC "-//W3C//DTD SVG 1.1//EN" "http://www.w3.org/Graphics/SVG/1.1/DTD/svg11.dtd"><svg t="1603096393239" class="icon" viewBox="0 0 1024 1024" version="1.1" xmlns="http://www.w3.org/2000/svg" p-id="9366" xmlns:xlink="http://www.w3.org/1999/xlink" width="200" height="200"><defs><style type="text/css"></style></defs><path d="M512 0C229.236364 0 0 229.236364 0 512s229.236364 512 512 512 512-229.236364 512-512S794.763636 0 512 0z m219.554909 665.181091a46.917818 46.917818 0 0 1-66.373818 66.373818L512 578.420364l-153.181091 153.134545a46.917818 46.917818 0 1 1-66.373818-66.373818L445.579636 512l-153.134545-153.181091a46.917818 46.917818 0 1 1 66.373818-66.373818L512 445.626182l153.181091-153.181091a46.917818 46.917818 0 0 1 66.373818 66.373818L578.420364 512l153.134545 153.181091z" p-id="9367"></path></svg>