<?xml version="1.0" standalone="no"?><!DOCTYPE svg PUBLIC "-//W3C//DTD SVG 1.1//EN" "http://www.w3.org/Graphics/SVG/1.1/DTD/svg11.dtd"><svg t="1603097254950" class="icon" viewBox="0 0 1024 1024" version="1.1" xmlns="http://www.w3.org/2000/svg" p-id="5250" data-spm-anchor-id="a313x.7781069.0.i8" xmlns:xlink="http://www.w3.org/1999/xlink" width="200" height="200"><defs><style type="text/css"></style></defs><path d="M905.3184 0h-768C66.9184 0 0 52.224 0 122.5728v768C0 955.136 57.8048 998.4 120.0128 1024H563.2v-401.3056c-51.2 0-81.408-0.3584-119.5008 0.2048-12.6976 0.256-20.48-3.84-20.3264-16.9472 0.3584-41.472-0.6656-82.9952-1.024-124.5184-0.2048-13.5168 5.6832-16.8448 18.0224-16.5888 31.488 0.5632 62.7712 0.256 94.2592 0.1024 7.0144 0 13.8752-0.7168 21.9136-1.2288 0-46.6944-0.8704-90.8288 0.1024-134.9632 1.8432-84.7872 53.0944-154.4704 133.9904-174.2848 36.352-8.8576 71.3728-7.68 109.312-8.5504 24.9856-0.5632 44.8512 3.2768 70.4512 5.12v142.9504c-25.6 0-57.4976-0.6144-87.5008 0.2048-38.4512 0.9728-61.44 12.8-63.744 40.96-3.4304 41.6256 1.1264 74.4448 1.1264 125.6448h150.016c0.6144 0 1.7408 10.8032 1.3312 13.9264-5.632 43.7248-11.52 88.4736-17.1008 132.1984-1.3824 11.5712-7.168 15.7184-18.7392 15.5648-38.7072-0.6656-77.4144 0-116.4288 0-0.9728 4.4544-1.9968 7.0656-1.9968 9.5744-0.0512 123.136 0.1536 246.3744-0.256 369.4592-0.1024 15.2576 7.168 17.1008 19.9168 17.0496 56.6272-0.2048 108.5952-0.1536 165.2224-0.1536C971.9296 1017.5488 1024 960.4608 1024 890.624v-768C1024 52.224 975.7184 0 905.3184 0" fill="#ffffff" p-id="5251" data-spm-anchor-id="a313x.7781069.0.i9" class="selected"></path></svg>