<svg xmlns="http://www.w3.org/2000/svg" width="30" height="24" viewBox="0 0 30 24">
    <g fill="none" fill-rule="evenodd">
        <g fill="#FFF">
            <g>
                <path d="M14.996 21.258c-5.179 0-9.377-4.146-9.377-9.26 0-5.115 4.198-9.261 9.377-9.261s9.377 4.146 9.377 9.26c0 5.115-4.198 9.261-9.377 9.261m9.775-16.491c-.223-.247-.868-.948-1.033-1.115C21.531 1.4 18.44 0 15.016 0 11.77 0 8.822 1.258 6.643 3.308c-.194.181-.694.676-.94.937-.986 1.043-3.637 4.019-5.545 7.738 1.782 3.475 4.21 6.297 5.324 7.504.204.22.783.832.948.995 2.198 2.17 5.233 3.513 8.586 3.513 3.617 0 6.863-1.563 9.088-4.04.124-.138.665-.752.847-.956 1.232-1.388 3.31-3.947 4.884-7.016C28.18 8.76 25.97 6.098 24.77 4.767" transform="translate(-24 -21) translate(24 21)"/>
                <path d="M14.996 7.91c-2.282 0-4.138 1.834-4.138 4.087 0 2.254 1.856 4.087 4.138 4.087s4.138-1.833 4.138-4.087c0-2.253-1.856-4.086-4.138-4.086" transform="translate(-24 -21) translate(24 21)"/>
                <path d="M9.284 12.026c.005 3.106 2.566 5.631 5.712 5.631s5.706-2.524 5.712-5.629v-.021-.019c-.005-3.106-2.566-5.632-5.712-5.632s-5.706 2.525-5.712 5.63v.04m5.712 7.479c-4.192 0-7.602-3.368-7.602-7.508 0-4.14 3.41-7.507 7.602-7.507s7.602 3.368 7.602 7.507c0 4.14-3.41 7.508-7.602 7.508" transform="translate(-24 -21) translate(24 21)"/>
            </g>
        </g>
    </g>
</svg>
